<svg width="102" height="89" viewBox="0 0 102 89" fill="none" xmlns="http://www.w3.org/2000/svg">
<path d="M46.3211 87.6744C47.6668 87.6287 48.7804 88.8624 50.2653 88.6796C51.7037 88.4968 53.1422 86.1666 51.9821 82.6028C50.8221 79.0389 47.9452 70.312 47.7132 67.6163C47.4812 64.9205 48.5484 59.392 48.6412 57.4273C48.734 55.4626 49.1052 52.5384 49.3836 52.4927C49.662 52.4014 51.2861 55.8281 52.3997 55.8738C53.5134 55.9195 55.1839 55.1428 56.1119 54.1376C57.0399 53.1324 57.4575 52.4014 58.0608 52.4927C58.6176 52.5841 58.896 56.1023 59.6384 56.1023C60.3809 56.1023 61.8193 55.1428 63.165 54.96C64.5106 54.7773 66.0883 56.0109 66.9235 55.4169C67.7588 54.823 67.3411 52.4471 67.9908 52.2643C68.6404 52.0358 72.0277 53.6807 73.0486 53.3609C74.1158 52.9953 73.7446 49.797 74.2086 49.7513C74.6726 49.7056 78.6168 50.4824 79.3128 49.7513C80.0088 49.0203 80.9369 46.2332 81.4937 45.959C82.0041 45.6849 84.2778 46.4159 84.8346 45.4107C85.3914 44.4055 85.6235 41.8012 86.8763 40.3848C88.1291 38.9684 91.7949 37.4149 91.8413 36.3183C91.8877 35.1761 92.3053 31.7493 92.5373 31.5665C92.8157 31.3837 95.3214 31.5208 96.0174 30.2872C96.7135 29.0535 95.9247 26.4949 96.5279 25.9923C97.1311 25.4897 98.2447 24.3474 98.1983 23.4793C98.1519 22.6112 97.2239 22.2457 97.3167 21.5146C97.4095 20.7836 100.194 18.499 100.008 17.4939C99.8224 16.443 98.8944 16.2602 98.9408 15.255C98.9872 14.2498 102.421 11.417 101.957 10.2748C101.493 9.1325 100.472 9.95492 100.379 9.26957C100.286 8.58421 101.075 6.20831 100.611 5.84278C100.147 5.43157 97.7343 6.254 97.5023 5.84278C97.2703 5.43157 98.4767 2.416 97.8271 2.09617C97.1775 1.77633 94.6718 3.60395 94.115 4.335C93.5582 5.06605 93.2797 5.38588 92.9085 5.15743C92.5373 4.92897 93.419 0.314238 92.3517 0.0400956C91.2381 -0.279738 90.6348 1.36512 89.5676 3.14705C88.5004 4.92897 84.2314 10.1377 79.5448 13.7472C74.8582 17.3568 69.3364 20.6922 68.4084 20.5094C67.4803 20.3267 66.2275 18.6818 65.2531 20.0068C64.2786 21.3319 59.2672 24.6673 57.4111 25.2612C55.5551 25.8552 51.4717 26.9061 48.502 26.4949C45.5323 26.038 41.4953 22.9767 40.6137 20.6922C39.7321 18.4077 34.3494 13.4274 29.6629 14.0671C24.9763 14.7067 17.6448 20.4637 17.6912 22.0172C17.7376 23.5707 18.944 23.525 19.9649 23.7078C20.9857 23.8905 23.8162 24.1647 24.4659 26.0837C25.1155 28.0027 24.8835 31.4751 21.7746 32.4803C18.6656 33.4855 14.6751 33.8967 12.819 33.4398C10.9629 32.9829 8.78205 32.7545 8.78205 33.2571C8.78205 33.7597 10.4061 35.5873 10.4061 36.1813C10.4061 36.7752 8.68925 37.4606 7.15799 37.4606C5.62673 37.4606 4.55949 37.8718 3.53865 36.958C2.51781 36.0442 0.847342 34.2166 0.29052 34.8105C-0.266301 35.4045 -0.127096 38.6942 1.63617 39.1511C3.39944 39.608 6.41556 40.1563 7.11159 41.2529C7.80761 42.3495 7.5292 43.1262 7.80761 43.5831C8.08602 44.04 9.75649 44.2685 10.1741 44.9995C10.6381 45.7306 10.3133 47.2383 10.6381 47.9694C10.9629 48.7004 14.4895 50.8022 16.2527 52.3557C18.016 53.9091 20.9393 56.5135 21.8674 58.067C22.7954 59.5748 24.1411 61.1739 25.0227 61.0369C25.9507 60.8998 25.2547 58.5696 25.7187 58.4782C26.1827 58.3868 29.2452 62.5903 31.0085 62.0877C32.7718 61.5851 34.1638 65.5145 35.0455 66.7939C35.8807 68.0732 38.34 70.9517 38.4328 74.013C38.5256 77.0742 38.6648 83.1967 38.804 84.7959C38.9432 86.3951 39.3608 89.0451 40.9849 88.9994C42.5162 88.9537 45.2075 87.7201 46.3211 87.6744Z" fill="#B798C1"/>
</svg>
