<svg width="71" height="93" viewBox="0 0 71 93" fill="none" xmlns="http://www.w3.org/2000/svg">
<path d="M70.2629 36.1141C70.1841 33.6315 70.2235 28.3905 70.1053 27.0901C69.9871 25.7897 69.79 24.8834 68.8049 24.2135C67.8197 23.5436 66.1253 22.4008 65.4554 22.0856C64.8249 21.7703 64.155 21.4945 62.4211 21.4945C60.6873 21.4945 52.9637 21.4157 51.5057 21.4945C50.0477 21.5733 48.8261 21.5733 48.629 21.0216C48.432 20.4699 48.1168 17.1598 48.1562 15.3472C48.1956 13.5345 48.7473 7.82064 48.7079 7.07193C48.6684 6.32322 47.9197 4.27411 46.4223 2.69787C44.9249 1.12163 43.8215 0.29411 41.6542 0.136486C39.4475 -0.0211374 34.0883 0.0576744 32.0786 0.136486C30.0689 0.215298 27.1134 0.175892 26.01 0.0576744C24.9067 -0.0605434 23.5669 -0.0605433 23.2122 0.688169C22.8576 1.43688 22.6605 2.54025 22.6999 4.39233C22.7393 6.24441 22.8182 16.4505 22.6999 17.7115C22.5423 18.9725 22.6605 20.3911 22.1089 20.9822C21.5572 21.5733 19.1534 21.5733 16.8285 21.4945C14.5035 21.4157 7.88331 21.4157 6.26767 21.3369C4.65203 21.2581 3.07579 21.4157 2.40589 21.3369C1.7754 21.2581 0.86906 21.9674 0.67203 23.6224C0.475001 25.2775 0.435595 29.021 0.317377 31.4642C0.199159 33.9074 0.0415353 38.0844 0.00212934 39.7789C-0.0372766 41.4733 0.475 43.2072 1.1449 44.1135C1.8148 45.0592 3.54866 46.4384 4.57322 46.7931C5.55837 47.1478 7.37104 47.3842 9.42015 47.3842C11.4693 47.3842 18.6805 47.0295 19.6657 47.0295C20.6508 47.0295 22.3453 47.1478 22.4241 50.3396C22.5029 53.5315 21.9906 66.8113 21.9906 70.3973C21.9906 73.9832 21.7936 80.0911 21.8724 82.4949C21.9906 84.8986 22.3453 87.9723 22.8182 89.3515C23.291 90.7701 23.4487 91.8735 24.5126 91.9523C25.5372 92.0311 35.7827 92.3464 38.2259 92.3464C40.669 92.3464 44.9249 92.1887 46.2253 92.1887C47.5651 92.1887 48.1168 92.1887 48.1562 90.4943C48.1956 88.7998 48.1956 74.8895 48.0774 71.1066C47.9591 67.3236 48.1562 59.0484 48.1168 54.9895C48.0774 50.9701 47.9591 48.8816 48.3532 48.0541C48.7473 47.266 49.6536 47.463 52.6879 47.5418C55.7615 47.6206 62.9334 47.4236 64.9431 47.5024C66.9528 47.5418 67.5045 47.5418 68.2926 47.5024C69.0807 47.463 69.5536 47.266 69.7506 45.6503C69.9871 44.0741 70.3417 38.5967 70.2629 36.1141ZM63.1304 32.8434C63.0516 35.9171 63.0122 39.9365 62.8546 40.1335C62.697 40.3305 60.8055 40.0941 58.9928 40.1335C57.2195 40.1729 43.8215 40.1729 42.5211 40.1335C41.1813 40.0941 41.1813 41.4339 41.1813 43.0495C41.1813 44.6652 41.0237 46.5173 40.9843 49.5909C40.9449 52.6646 40.5902 54.3985 40.5508 55.6988C40.5114 56.9992 40.7873 59.6 40.9449 61.4127C41.0631 63.2254 40.9055 81.8644 40.9449 83.3224C40.9843 84.7804 40.078 85.2927 39.0928 85.2927C38.1077 85.2927 29.7536 85.0563 28.4926 84.938C27.2316 84.8592 26.9164 83.3618 26.9558 82.022C26.9952 80.4458 26.9952 78.042 26.9952 76.0323C26.9952 74.0226 27.1528 70.3185 26.9164 68.3087C26.6799 66.299 26.8376 63.6194 26.9164 61.1763C26.9952 58.7331 27.2316 46.9113 27.2316 43.483C27.2316 40.0547 25.7342 39.8577 23.4093 39.8577C21.0843 39.8577 9.97183 39.9759 7.41044 39.8971C4.84906 39.8183 4.29738 38.5179 4.25797 37.2569C4.21856 35.9959 4.13975 29.2181 4.25797 27.0901C4.37619 24.9622 7.64688 25.2775 9.65658 25.2775C11.6663 25.2775 21.636 25.0016 24.1186 25.041C26.5617 25.0804 26.6799 22.0068 26.5617 20.3517C26.4435 18.6967 26.5617 8.8846 26.5617 7.11134C26.5617 5.37748 27.074 4.43173 28.729 4.39233C30.3841 4.35292 37.7924 4.27411 39.7627 4.39233C41.733 4.51054 41.5754 5.37748 41.536 5.92916C41.4966 6.48084 41.4178 9.90916 41.4966 11.84C41.5754 13.7709 41.3389 23.2284 41.93 24.4894C42.5211 25.7503 45.7918 25.5533 48.2744 25.3957C50.7964 25.2775 60.2932 25.5533 61.7118 25.7503C63.1304 25.908 63.0516 25.908 63.2092 26.6961C63.288 27.6024 63.2092 29.7697 63.1304 32.8434Z" fill="#B798C1"/>
</svg>
