<svg width="44" height="44" viewBox="0 0 44 44" fill="none" xmlns="http://www.w3.org/2000/svg">
<path d="M43.5875 13.2C43.5875 13.2 43.175 10.175 41.8688 8.8C40.2188 7.08125 38.2938 7.0125 37.4688 6.94375C31.2125 6.53125 22 6.53125 22 6.53125C22 6.53125 12.7875 6.53125 6.6 6.94375C5.70625 7.0125 3.85 7.08125 2.2 8.8C0.89375 10.1063 0.48125 13.2 0.48125 13.2C0.48125 13.2 0 16.775 0 20.35V23.7188C0 27.2938 0.4125 30.8688 0.4125 30.8688C0.4125 30.8688 0.825 33.8937 2.13125 35.2687C3.78125 36.9875 5.98125 36.9875 7.0125 37.125C10.5188 37.4688 22 37.5375 22 37.5375C22 37.5375 31.2125 37.5375 37.4 37.0563C38.2938 36.9875 40.15 36.9188 41.8 35.2C43.1063 33.8938 43.5187 30.8 43.5187 30.8C43.5187 30.8 44 27.225 44 23.65V20.2812C44 16.775 43.5875 13.2 43.5875 13.2ZM17.4625 27.7062V15.3312L29.3563 21.5187L17.4625 27.7062Z" fill="#B798C1"/>
</svg>
