<svg width="38" height="38" viewBox="0 0 38 38" fill="none" xmlns="http://www.w3.org/2000/svg">
<path d="M25.3109 18.9997C25.3109 22.5282 22.4609 25.3104 19.0002 25.3104C15.4716 25.3104 12.6895 22.4604 12.6895 18.9997C12.6895 15.4711 15.5395 12.689 19.0002 12.689C22.4609 12.689 25.3109 15.4711 25.3109 18.9997Z" fill="#B798C1"/>
<path d="M37.8643 11.1964C37.8643 9.63571 37.525 8.075 36.9821 6.58214C35.9643 4.00357 33.9964 2.03571 31.4179 1.01786C29.925 0.475 28.3643 0.135714 26.8036 0.135714C24.7679 0 24.1571 0 19 0C13.8429 0 13.1643 0 11.1964 0.135714C9.63571 0.135714 8.075 0.475 6.58214 1.01786C4.00357 1.96786 1.96786 4.00357 1.01786 6.58214C0.475 8.075 0.135714 9.63571 0.135714 11.1964C0 13.1643 0 13.8429 0 19C0 24.1571 0 24.7679 0.135714 26.8036C0.203571 28.3643 0.475 29.925 1.01786 31.4179C2.03571 33.9964 4.00357 35.9643 6.58214 36.9821C8.075 37.525 9.63571 37.7964 11.1964 37.8643C13.2321 37.9321 13.9107 38 19 38C24.1571 38 24.7679 38 26.8036 37.8643C28.3643 37.8643 29.925 37.525 31.4179 36.9821C33.9964 35.9643 35.9643 33.9964 36.9821 31.4179C37.525 29.925 37.7964 28.3643 37.8643 26.8036C38 24.7679 38 24.1571 38 19C38 13.8429 38 13.1643 37.8643 11.1964ZM29.1107 11.1286C27.8893 11.1286 26.8036 10.1107 26.8036 8.82143C26.8036 7.53214 27.8214 6.51429 29.1107 6.51429C30.4 6.51429 31.4179 7.53214 31.4179 8.82143C31.4179 10.1107 30.4 11.1286 29.1107 11.1286ZM19 28.7714C13.5714 28.7714 9.22857 24.4286 9.22857 19C9.22857 13.5714 13.5714 9.22857 19 9.22857C21.7143 9.22857 24.1571 10.3143 25.9214 12.0786C27.6857 13.8429 28.7714 16.2857 28.7714 19C28.7714 24.3607 24.3607 28.7714 19 28.7714Z" fill="#B798C1"/>
</svg>
