<svg width="38" height="48" viewBox="0 0 38 48" fill="none" xmlns="http://www.w3.org/2000/svg">
<path fill-rule="evenodd" clip-rule="evenodd" d="M21.1129 4.72837C24.1808 0.271583 28.4453 0.25 28.4453 0.25C28.4453 0.25 29.0793 4.44033 26.0318 8.47709C22.7779 12.7869 19.079 12.0822 19.079 12.0822C19.079 12.0822 18.3847 8.69208 21.1129 4.72837Z" fill="#B798C1"/>
<path fill-rule="evenodd" clip-rule="evenodd" d="M19.3255 14.3045C20.9014 14.3045 23.8252 12.125 27.6316 12.125C34.1838 12.125 36.761 16.816 36.761 16.816C36.761 16.816 31.72 19.4093 31.72 25.7026C31.72 32.8016 38 35.2481 38 35.2481C38 35.2481 33.6101 47.6812 27.6805 47.6812C24.9574 47.6812 22.8395 45.8345 19.9706 45.8345C17.0468 45.8345 14.1447 47.75 12.2547 47.75C6.84006 47.75 0 35.9562 0 26.4765C0 17.1497 5.78977 12.2566 11.2209 12.2566C14.75 12.2559 17.4896 14.3045 19.3255 14.3045Z" fill="#B798C1"/>
</svg>
