<svg width="48" height="48" viewBox="0 0 48 48" fill="none" xmlns="http://www.w3.org/2000/svg">
<path d="M24 0C10.8 0 0 10.8 0 24C0 37.2 10.8 48 24 48C37.2 48 48 37.2 48 24C48 10.8 37.35 0 24 0ZM35.025 34.65C34.575 35.4 33.675 35.625 33 35.1C27.375 31.65 20.25 30.9 11.85 32.85C11.025 33.075 10.275 32.475 10.05 31.8C9.825 30.975 10.425 30.225 11.1 30C20.25 27.975 28.125 28.8 34.35 32.625C35.25 33 35.4 33.975 35.025 34.65ZM37.95 28.05C37.35 28.875 36.3 29.25 35.4 28.65C28.95 24.675 19.05 23.475 11.55 25.875C10.575 26.1 9.525 25.65 9.3 24.675C9.075 23.7 9.525 22.65 10.5 22.425C19.275 19.8 30.075 21.075 37.5 25.65C38.175 26.025 38.55 27.225 37.95 28.05ZM38.175 21.375C30.525 16.8 17.625 16.35 10.35 18.6C9.15 18.975 7.95 18.225 7.575 17.175C7.2 15.975 7.95 14.775 9 14.4C17.55 11.85 31.575 12.375 40.425 17.625C41.475 18.225 41.85 19.65 41.25 20.775C40.65 21.6 39.225 21.975 38.175 21.375Z" fill="#B798C1"/>
</svg>
