<svg width="16" height="20" viewBox="0 0 16 20" fill="none" xmlns="http://www.w3.org/2000/svg">
<path fill-rule="evenodd" clip-rule="evenodd" d="M8.88966 1.88563C10.1814 0.00908738 11.9769 0 11.9769 0C11.9769 0 12.2439 1.76435 10.9607 3.46404C9.5907 5.27872 8.03326 4.98198 8.03326 4.98198C8.03326 4.98198 7.74092 3.55456 8.88966 1.88563Z" fill="#121212"/>
<path fill-rule="evenodd" clip-rule="evenodd" d="M8.13707 5.91767C8.80057 5.91767 10.0317 5 11.6344 5C14.3932 5 15.4783 6.97518 15.4783 6.97518C15.4783 6.97518 13.3558 8.06708 13.3558 10.7169C13.3558 13.7059 16 14.736 16 14.736C16 14.736 14.1516 19.971 11.655 19.971C10.5084 19.971 9.61665 19.1935 8.40867 19.1935C7.17759 19.1935 5.95568 20 5.15986 20C2.88003 20 0 15.0342 0 11.0427C0 7.11565 2.4378 5.05542 4.7246 5.05542C6.21051 5.0551 7.36404 5.91767 8.13707 5.91767Z" fill="#121212"/>
</svg>
